<?xml version="1.0" encoding="UTF-8" standalone="no"?>
<svg
   width="448pt"
   height="532pt"
   viewBox="0 0 448 532"
   version="1.1"
   id="svg1038"
   sodipodi:docname="exacts_rescue.svg"
   inkscape:version="1.2.2 (b0a8486541, 2022-12-01)"
   inkscape:export-filename="../exacts_rescue.png"
   inkscape:export-xdpi="300"
   inkscape:export-ydpi="300"
   xml:space="preserve"
   xmlns:inkscape="http://www.inkscape.org/namespaces/inkscape"
   xmlns:sodipodi="http://sodipodi.sourceforge.net/DTD/sodipodi-0.dtd"
   xmlns="http://www.w3.org/2000/svg"
   xmlns:svg="http://www.w3.org/2000/svg"
   xmlns:rdf="http://www.w3.org/1999/02/22-rdf-syntax-ns#"
   xmlns:cc="http://creativecommons.org/ns#"
   xmlns:dc="http://purl.org/dc/elements/1.1/"><sodipodi:namedview
     id="namedview1040"
     pagecolor="#ffffff"
     bordercolor="#000000"
     borderopacity="0.25"
     inkscape:showpageshadow="2"
     inkscape:pageopacity="0.0"
     inkscape:pagecheckerboard="0"
     inkscape:deskcolor="#d1d1d1"
     inkscape:document-units="pt"
     showgrid="false"
     inkscape:zoom="1.1588695"
     inkscape:cx="616.98062"
     inkscape:cy="263.61899"
     inkscape:window-width="1920"
     inkscape:window-height="1020"
     inkscape:window-x="0"
     inkscape:window-y="32"
     inkscape:window-maximized="1"
     inkscape:current-layer="svg1038" /><metadata
     id="metadata650"><rdf:RDF><cc:Work><dc:type
           rdf:resource="http://purl.org/dc/dcmitype/StillImage" /><dc:date>2024-08-06T14:52:15.170130</dc:date><dc:format>image/svg+xml</dc:format><dc:creator><cc:Agent><dc:title>Matplotlib v3.9.1, https://matplotlib.org/</dc:title></cc:Agent></dc:creator></cc:Work></rdf:RDF></metadata><defs
     id="defs654"><style
       type="text/css"
       id="style652">*{stroke-linejoin: round; stroke-linecap: butt}</style><style
       type="text/css"
       id="style2194">*{stroke-linejoin: round; stroke-linecap: butt}</style></defs><defs
     id="defs1036" /><text
     xml:space="preserve"
     style="font-weight:bold;font-size:14px;line-height:1;font-family:Arial;-inkscape-font-specification:'Arial Bold';fill:#000000;fill-opacity:1;stroke:none;stroke-width:1.125;stroke-linecap:round;stroke-linejoin:round"
     x="129.61356"
     y="446.22464"
     id="text23592-3"><tspan
       sodipodi:role="line"
       id="tspan23590-6"
       style="font-size:14px;fill:#000000;fill-opacity:1;stroke:none;stroke-width:1.125"
       x="129.61356"
       y="446.22464">Orthogroups correctly called</tspan></text><text
     xml:space="preserve"
     style="font-weight:bold;font-size:16px;line-height:1;font-family:Arial;-inkscape-font-specification:'Arial Bold';fill:#000000;fill-opacity:1;stroke:none;stroke-width:1.125;stroke-linecap:round;stroke-linejoin:round"
     x="-380.71976"
     y="12.345695"
     id="text23578-5"
     transform="rotate(-90)"><tspan
       sodipodi:role="line"
       id="tspan23576-3"
       style="font-size:16px;fill:#000000;fill-opacity:1;stroke:none;stroke-width:1.125"
       x="-380.71976"
       y="12.345695">Percent of genes assigned to orthogroups</tspan></text><path
     d="M 47.673748,35.364287 H 219.59375"
     clip-path="none"
     style="fill:none;stroke:#808080;stroke-width:1.125;stroke-linecap:round;stroke-linejoin:round;stroke-dasharray:none;stroke-opacity:1"
     id="path722" /><path
     d="m 47.673748,403.86429 v -179.75"
     style="fill:none;stroke:#808080;stroke-width:1.125;stroke-linecap:round;stroke-linejoin:round;stroke-dasharray:none;stroke-opacity:1"
     id="path925"
     clip-path="none" /><path
     d="M 47.673748,215.11429 V 35.364287"
     style="fill:none;stroke:#808080;stroke-width:1.125;stroke-linecap:round;stroke-linejoin:round;stroke-dasharray:none;stroke-opacity:1"
     id="path743"
     clip-path="none" /><path
     d="M 47.673748,19.051787 H 219.59375"
     style="fill:none;stroke:#000000;stroke-width:1.5;stroke-linecap:round;stroke-linejoin:round;stroke-dasharray:none;stroke-opacity:1"
     id="path23566"
     clip-path="none"
     sodipodi:nodetypes="cc" /><text
     xml:space="preserve"
     style="font-weight:bold;font-size:14px;line-height:1;font-family:Arial;-inkscape-font-specification:'Arial Bold';fill:#000000;fill-opacity:1;stroke:none;stroke-width:1.125;stroke-linecap:round;stroke-linejoin:round"
     x="92.14296"
     y="10.818393"
     id="text23570"><tspan
       sodipodi:role="line"
       id="tspan23568"
       style="font-size:14px;fill:#000000;fill-opacity:1;stroke:none;stroke-width:1.125"
       x="92.14296"
       y="10.818393">Inflation: 1.5</tspan></text><path
     d="m 228.59375,35.364287 h 171.92"
     clip-path="none"
     style="fill:none;stroke:#808080;stroke-width:1.125;stroke-linecap:round;stroke-linejoin:round;stroke-dasharray:none;stroke-opacity:1"
     id="path798" /><path
     d="M 228.59375,215.11429 V 35.364287"
     style="fill:none;stroke:#808080;stroke-width:1.125;stroke-linecap:round;stroke-linejoin:round;stroke-dasharray:none;stroke-opacity:1"
     id="path816"
     clip-path="none" /><text
     xml:space="preserve"
     style="font-weight:bold;font-size:14px;line-height:1;font-family:Arial;-inkscape-font-specification:'Arial Bold';fill:#000000;fill-opacity:1;stroke:none;stroke-width:1.125;stroke-linecap:round;stroke-linejoin:round"
     x="273.98926"
     y="10.818393"
     id="text23582"><tspan
       sodipodi:role="line"
       id="tspan23580"
       style="font-size:14px;fill:#000000;fill-opacity:1;stroke:none;stroke-width:1.125"
       x="273.98926"
       y="10.818393">Inflation: 1.1</tspan></text><text
     xml:space="preserve"
     style="font-weight:bold;font-size:14px;line-height:1;font-family:Arial;-inkscape-font-specification:'Arial Bold';fill:#000000;fill-opacity:1;stroke:none;stroke-width:1.125;stroke-linecap:round;stroke-linejoin:round"
     x="-165.49765"
     y="437.21689"
     id="text23578"
     transform="rotate(-90)"><tspan
       sodipodi:role="line"
       id="tspan23576"
       style="font-size:14px;fill:#000000;fill-opacity:1;stroke:none;stroke-width:1.125"
       x="-165.49765"
       y="437.21689">e-value: 1e<tspan
   style="font-size:9.09997px;baseline-shift:super;stroke-width:1.125"
   id="tspan23574">-3</tspan></tspan></text><path
     d="M 416.82626,215.11429 V 35.364287"
     style="fill:none;stroke:#000000;stroke-width:1.5;stroke-linecap:round;stroke-linejoin:round;stroke-dasharray:none;stroke-opacity:1"
     id="path23586"
     clip-path="none"
     sodipodi:nodetypes="cc" /><path
     d="m 228.59375,19.051787 h 171.92"
     style="fill:none;stroke:#000000;stroke-width:1.5;stroke-linecap:round;stroke-linejoin:round;stroke-dasharray:none;stroke-opacity:1"
     id="path2935"
     clip-path="none"
     sodipodi:nodetypes="cc" /><path
     d="m 228.40625,224.11429 h 171.92"
     clip-path="none"
     style="fill:none;stroke:#808080;stroke-width:1.125;stroke-linecap:round;stroke-linejoin:round;stroke-dasharray:none;stroke-opacity:1"
     id="path998" /><path
     d="m 228.40625,403.86429 v -179.75"
     style="fill:none;stroke:#808080;stroke-width:1.125;stroke-linecap:round;stroke-linejoin:round;stroke-dasharray:none;stroke-opacity:1"
     id="path1016"
     clip-path="none" /><text
     xml:space="preserve"
     style="font-weight:bold;font-size:14px;line-height:1;font-family:Arial;-inkscape-font-specification:'Arial Bold';fill:#000000;fill-opacity:1;stroke:none;stroke-width:1.125;stroke-linecap:round;stroke-linejoin:round"
     x="-354.28098"
     y="437.02939"
     id="text23592"
     transform="rotate(-90)"><tspan
       sodipodi:role="line"
       id="tspan23590"
       style="font-size:14px;fill:#000000;fill-opacity:1;stroke:none;stroke-width:1.125"
       x="-354.28098"
       y="437.02939">e-value: 1e<tspan
   style="font-size:9.09997px;baseline-shift:super;stroke-width:1.125"
   id="tspan23588">-6</tspan></tspan></text><path
     d="m 416.63876,403.86429 v -179.75"
     style="fill:none;stroke:#000000;stroke-width:1.5;stroke-linecap:round;stroke-linejoin:round;stroke-dasharray:none;stroke-opacity:1"
     id="path2955"
     clip-path="none"
     sodipodi:nodetypes="cc" /><rect
     style="fill:#ffffff;fill-opacity:0.75;stroke:#000000;stroke-width:1.50001;stroke-linecap:round;stroke-linejoin:bevel;stroke-opacity:1"
     id="rect9263"
     width="446"
     height="75"
     x="0.99999994"
     y="455.62399"
     rx="20.000002"
     ry="20" /><text
     xml:space="preserve"
     style="font-style:normal;font-variant:normal;font-weight:bold;font-stretch:normal;font-size:11px;line-height:1;font-family:Arial;-inkscape-font-specification:'Arial Bold';fill:#000000;fill-opacity:1;stroke:none;stroke-width:1.5;stroke-linecap:round;stroke-linejoin:bevel"
     x="27.737989"
     y="497.12546"
     id="text5522"><tspan
       sodipodi:role="line"
       id="tspan5520"
       style="font-style:normal;font-variant:normal;font-weight:normal;font-stretch:normal;font-size:11px;font-family:Arial;-inkscape-font-specification:Arial;stroke-width:1.5"
       x="27.737989"
       y="497.12546">OrthoPrep + OrthoFinder</tspan></text><text
     xml:space="preserve"
     style="font-style:normal;font-variant:normal;font-weight:bold;font-stretch:normal;font-size:11px;line-height:1;font-family:Arial;-inkscape-font-specification:'Arial Bold';fill:#000000;fill-opacity:1;stroke:none;stroke-width:1.5;stroke-linecap:round;stroke-linejoin:bevel"
     x="27.737989"
     y="515.81049"
     id="text5522-7"><tspan
       sodipodi:role="line"
       id="tspan5520-0"
       style="font-style:normal;font-variant:normal;font-weight:normal;font-stretch:normal;font-size:11px;font-family:Arial;-inkscape-font-specification:Arial;stroke-width:1.5"
       x="27.737989"
       y="515.81049">OrthoFinder</tspan></text><path
     id="use6493"
     d="m 16.784447,515.89664 c 0.79561,0 1.55874,-0.3161 2.12132,-0.87868 0.56258,-0.56258 0.87868,-1.32571 0.87868,-2.12132 0,-0.79561 -0.3161,-1.55874 -0.87868,-2.12132 -0.56258,-0.56258 -1.32571,-0.87868 -2.12132,-0.87868 -0.79561,0 -1.55874,0.3161 -2.12132,0.87868 -0.56258,0.56258 -0.87868,1.32571 -0.87868,2.12132 0,0.79561 0.3161,1.55874 0.87868,2.12132 0.56258,0.56258 1.32571,0.87868 2.12132,0.87868 z"
     style="fill:#377eb8;stroke-linecap:butt;stroke-linejoin:round" /><text
     xml:space="preserve"
     style="font-style:normal;font-variant:normal;font-weight:normal;font-stretch:normal;font-size:11px;line-height:1;font-family:Arial;-inkscape-font-specification:Arial;fill:#000000;fill-opacity:1;stroke:none;stroke-width:1.5;stroke-linecap:round;stroke-linejoin:bevel"
     x="27.737989"
     y="478.31155"
     id="text8798"><tspan
       sodipodi:role="line"
       id="tspan8796"
       style="font-weight:bold;stroke-width:1.5"
       x="27.737989"
       y="478.31155">Orthogroup assignment</tspan></text><text
     xml:space="preserve"
     style="font-style:normal;font-variant:normal;font-weight:bold;font-stretch:normal;font-size:11px;line-height:1;font-family:Arial;-inkscape-font-specification:'Arial Bold';fill:#000000;fill-opacity:1;stroke:none;stroke-width:1.5;stroke-linecap:round;stroke-linejoin:bevel"
     x="180.45164"
     y="496.98581"
     id="text5522-6"><tspan
       sodipodi:role="line"
       id="tspan5520-06"
       style="font-style:normal;font-variant:normal;font-weight:normal;font-stretch:normal;font-size:11px;font-family:Arial;-inkscape-font-specification:Arial;stroke-width:1.5"
       x="180.45164"
       y="496.98581">Relaxed</tspan></text><path
     id="use6508"
     d="m 169.83112,497.14184 c 0.79561,0 1.55874,-0.3161 2.12132,-0.87868 0.56258,-0.56259 0.87868,-1.32571 0.87868,-2.12132 0,-0.79561 -0.3161,-1.55874 -0.87868,-2.12132 -0.56258,-0.56258 -1.32571,-0.87868 -2.12132,-0.87868 -0.79561,0 -1.55874,0.3161 -2.12132,0.87868 -0.56258,0.56258 -0.87868,1.32571 -0.87868,2.12132 0,0.79561 0.3161,1.55873 0.87868,2.12132 0.56258,0.56258 1.32571,0.87868 2.12132,0.87868 z"
     style="fill:#333333;stroke-linecap:butt;stroke-linejoin:round" /><text
     xml:space="preserve"
     style="font-style:normal;font-variant:normal;font-weight:bold;font-stretch:normal;font-size:11px;line-height:1;font-family:Arial;-inkscape-font-specification:'Arial Bold';fill:#000000;fill-opacity:1;stroke:none;stroke-width:1.5;stroke-linecap:round;stroke-linejoin:bevel"
     x="180.82225"
     y="515.81049"
     id="text5522-7-2"><tspan
       sodipodi:role="line"
       id="tspan5520-0-6"
       style="font-style:normal;font-variant:normal;font-weight:normal;font-stretch:normal;font-size:11px;font-family:Arial;-inkscape-font-specification:Arial;stroke-width:1.5"
       x="180.82225"
       y="515.81049">Strict</tspan></text><path
     id="use6519"
     d="m 168.33112,515.89937 1.5,-1.5 1.5,1.5 1.5,-1.5 -1.5,-1.5 1.5,-1.5 -1.5,-1.5 -1.5,1.5 -1.5,-1.5 -1.5,1.5 1.5,1.5 -1.5,1.5 z"
     style="fill:#333333;stroke-linecap:butt;stroke-linejoin:round" /><text
     xml:space="preserve"
     style="font-style:normal;font-variant:normal;font-weight:normal;font-stretch:normal;font-size:11px;line-height:1;font-family:Arial;-inkscape-font-specification:Arial;fill:#000000;fill-opacity:1;stroke:none;stroke-width:1.5;stroke-linecap:round;stroke-linejoin:bevel"
     x="180.46776"
     y="478.31155"
     id="text8798-9"><tspan
       sodipodi:role="line"
       id="tspan8796-3"
       style="font-weight:bold;stroke-width:1.5"
       x="180.46776"
       y="478.31155">Protein length tolerance</tspan></text><text
     xml:space="preserve"
     style="font-style:normal;font-variant:normal;font-weight:bold;font-stretch:normal;font-size:11px;line-height:1;font-family:Arial;-inkscape-font-specification:'Arial Bold';fill:#000000;fill-opacity:1;stroke:none;stroke-width:1.5;stroke-linecap:round;stroke-linejoin:bevel"
     x="329.30197"
     y="496.98581"
     id="text5522-6-7"><tspan
       sodipodi:role="line"
       id="tspan5520-06-9"
       style="font-style:normal;font-variant:normal;font-weight:normal;font-stretch:normal;font-size:11px;font-family:Arial;-inkscape-font-specification:Arial;stroke-width:1.5"
       x="329.30197"
       y="496.98581">Normal run</tspan></text><path
     id="use6534"
     d="m 317.41193,498.38448 c 1.12516,0 2.20439,-0.44703 3,-1.24264 0.79561,-0.79561 1.24264,-1.87484 1.24264,-3 0,-1.12516 -0.44703,-2.20439 -1.24264,-3 -0.79561,-0.79561 -1.87484,-1.24264 -3,-1.24264 -1.12516,0 -2.20439,0.44703 -3,1.24264 -0.79561,0.79561 -1.24264,1.87484 -1.24264,3 0,1.12516 0.44703,2.20439 1.24264,3 0.79561,0.79561 1.87484,1.24264 3,1.24264 z"
     style="fill:#333333;stroke-linecap:butt;stroke-linejoin:round" /><text
     xml:space="preserve"
     style="font-style:normal;font-variant:normal;font-weight:bold;font-stretch:normal;font-size:11px;line-height:1;font-family:Arial;-inkscape-font-specification:'Arial Bold';fill:#000000;fill-opacity:1;stroke:none;stroke-width:1.5;stroke-linecap:round;stroke-linejoin:bevel"
     x="329.1301"
     y="515.69769"
     id="text5522-7-2-2"><tspan
       sodipodi:role="line"
       id="tspan5520-0-6-0"
       style="font-style:normal;font-variant:normal;font-weight:bold;font-stretch:normal;font-size:11px;font-family:'Courier New';-inkscape-font-specification:'Courier New Bold';stroke-width:1.5"
       x="329.1301"
       y="515.69769">--more-sensitive</tspan></text><path
     id="use6545"
     d="m 317.41193,515.48526 c 0.56258,0 1.1022,-0.22351 1.5,-0.62132 0.39781,-0.39779 0.62132,-0.93742 0.62132,-1.5 0,-0.56258 -0.22351,-1.10218 -0.62132,-1.5 -0.3978,-0.39779 -0.93742,-0.62132 -1.5,-0.62132 -0.56258,0 -1.10219,0.22353 -1.5,0.62132 -0.3978,0.39782 -0.62132,0.93742 -0.62132,1.5 0,0.56258 0.22352,1.10221 0.62132,1.5 0.39781,0.39782 0.93742,0.62132 1.5,0.62132 z"
     style="fill:#333333;stroke-linecap:butt;stroke-linejoin:round" /><text
     xml:space="preserve"
     style="font-style:normal;font-variant:normal;font-weight:normal;font-stretch:normal;font-size:11px;line-height:1;font-family:Arial;-inkscape-font-specification:Arial;fill:#000000;fill-opacity:1;stroke:none;stroke-width:1.5;stroke-linecap:round;stroke-linejoin:bevel"
     x="329.29123"
     y="478.31155"
     id="text8798-9-1"><tspan
       sodipodi:role="line"
       id="tspan8796-3-8"
       style="font-weight:bold;stroke-width:1.5"
       x="329.29123"
       y="478.31155">Diamond options</tspan></text><path
     id="use6482"
     d="m 16.784447,497.21164 c 0.79561,0 1.55874,-0.3161 2.12132,-0.87869 0.56258,-0.56258 0.87868,-1.3257 0.87868,-2.12131 0,-0.79561 -0.3161,-1.55874 -0.87868,-2.12132 -0.56258,-0.56258 -1.32571,-0.87868 -2.12132,-0.87868 -0.79561,0 -1.55874,0.3161 -2.12132,0.87868 -0.56258,0.56258 -0.87868,1.32571 -0.87868,2.12132 0,0.79561 0.3161,1.55873 0.87868,2.12131 0.56258,0.56259 1.32571,0.87869 2.12132,0.87869 z"
     style="fill:#e41a1c;stroke-linecap:butt;stroke-linejoin:round" /><path
     d="M 91.43,215.11427 V 35.364274"
     clip-path="none"
     style="fill:none;stroke:#808080;stroke-width:1.125;stroke-linecap:round;stroke-linejoin:round;stroke-dasharray:none;stroke-opacity:1"
     id="path2208" /><path
     d="M 135.18625,215.11427 V 35.364274"
     clip-path="none"
     style="fill:none;stroke:#808080;stroke-width:1.125;stroke-linecap:round;stroke-linejoin:round;stroke-dasharray:none;stroke-opacity:1"
     id="path2212" /><path
     d="M 178.9425,215.11427 V 35.364274"
     clip-path="none"
     style="fill:none;stroke:#808080;stroke-width:1.125;stroke-linecap:round;stroke-linejoin:round;stroke-dasharray:none;stroke-opacity:1"
     id="path2216" /><path
     d="M 222.69875,215.11427 V 35.364274"
     clip-path="none"
     style="fill:none;stroke:#808080;stroke-width:1.125;stroke-linecap:round;stroke-linejoin:round;stroke-dasharray:none;stroke-opacity:1"
     id="path2220" /><path
     d="m 47.67375,215.11427 h 175.025"
     clip-path="none"
     style="fill:none;stroke:#808080;stroke-width:1.125;stroke-linecap:round;stroke-linejoin:round;stroke-dasharray:none;stroke-opacity:1"
     id="path2225" /><path
     d="m 47.67375,192.64552 h 175.025"
     clip-path="none"
     style="fill:none;stroke:#808080;stroke-width:1.125;stroke-linecap:round;stroke-linejoin:round;stroke-dasharray:none;stroke-opacity:1"
     id="path2232" /><path
     d="m 47.67375,170.17677 h 175.025"
     clip-path="none"
     style="fill:none;stroke:#808080;stroke-width:1.125;stroke-linecap:round;stroke-linejoin:round;stroke-dasharray:none;stroke-opacity:1"
     id="path2239" /><path
     d="m 47.67375,147.70802 h 175.025"
     clip-path="none"
     style="fill:none;stroke:#808080;stroke-width:1.125;stroke-linecap:round;stroke-linejoin:round;stroke-dasharray:none;stroke-opacity:1"
     id="path2246" /><path
     d="m 47.67375,125.23927 h 175.025"
     clip-path="none"
     style="fill:none;stroke:#808080;stroke-width:1.125;stroke-linecap:round;stroke-linejoin:round;stroke-dasharray:none;stroke-opacity:1"
     id="path2253" /><path
     d="m 47.67375,102.77052 h 175.025"
     clip-path="none"
     style="fill:none;stroke:#808080;stroke-width:1.125;stroke-linecap:round;stroke-linejoin:round;stroke-dasharray:none;stroke-opacity:1"
     id="path2260" /><path
     d="m 47.67375,80.301774 h 175.025"
     clip-path="none"
     style="fill:none;stroke:#808080;stroke-width:1.125;stroke-linecap:round;stroke-linejoin:round;stroke-dasharray:none;stroke-opacity:1"
     id="path2267" /><path
     d="m 47.67375,57.833024 h 175.025"
     clip-path="none"
     style="fill:none;stroke:#808080;stroke-width:1.125;stroke-linecap:round;stroke-linejoin:round;stroke-dasharray:none;stroke-opacity:1"
     id="path2274" /><path
     d="m 161.44,152.84941 c 1.12516,0 2.20439,-0.44703 3,-1.24264 0.79561,-0.79561 1.24264,-1.87484 1.24264,-3 0,-1.12516 -0.44703,-2.20439 -1.24264,-3 -0.79561,-0.79561 -1.87484,-1.24264 -3,-1.24264 -1.12516,0 -2.20439,0.44703 -3,1.24264 -0.79561,0.79561 -1.24264,1.87484 -1.24264,3 0,1.12516 0.44703,2.20439 1.24264,3 0.79561,0.79561 1.87484,1.24264 3,1.24264 z"
     clip-path="none"
     style="fill:#e41a1c;stroke:#e41a1c;stroke-width:0.375;stroke-dasharray:none;stroke-opacity:1"
     id="path2289" /><path
     d="m 133.06493,155.54566 2.12132,-2.12132 2.12132,2.12132 2.12132,-2.12132 -2.12132,-2.12132 2.12132,-2.12132 -2.12132,-2.12132 -2.12132,2.12132 -2.12132,-2.12132 -2.12132,2.12132 2.12132,2.12132 -2.12132,2.12132 z"
     clip-path="none"
     style="fill:#e41a1c;stroke:#e41a1c;stroke-width:0.375;stroke-dasharray:none;stroke-opacity:1"
     id="path2291" /><path
     d="m 170.19125,133.65184 c 0.56258,0 1.10219,-0.22352 1.5,-0.62132 0.3978,-0.3978 0.62132,-0.93742 0.62132,-1.5 0,-0.56258 -0.22352,-1.1022 -0.62132,-1.5 -0.39781,-0.3978 -0.93742,-0.62132 -1.5,-0.62132 -0.56258,0 -1.1022,0.22352 -1.5,0.62132 -0.39781,0.3978 -0.62132,0.93742 -0.62132,1.5 0,0.56258 0.22351,1.1022 0.62132,1.5 0.3978,0.3978 0.93742,0.62132 1.5,0.62132 z"
     clip-path="none"
     style="fill:#e41a1c;stroke:#e41a1c;stroke-width:0.375;stroke-dasharray:none;stroke-opacity:1"
     id="path2293" /><path
     d="m 134.12559,135.44934 1.06066,-1.06066 1.06066,1.06066 1.06066,-1.06066 -1.06066,-1.06066 1.06066,-1.06066 -1.06066,-1.06066 -1.06066,1.06066 -1.06066,-1.06066 -1.06066,1.06066 1.06066,1.06066 -1.06066,1.06066 z"
     clip-path="none"
     style="fill:#e41a1c;stroke:#e41a1c;stroke-width:0.375;stroke-dasharray:none;stroke-opacity:1"
     id="path2295" /><path
     d="m 178.9425,124.08941 c 1.12516,0 2.20439,-0.44703 3,-1.24264 0.79561,-0.79561 1.24264,-1.87484 1.24264,-3 0,-1.12516 -0.44703,-2.20439 -1.24264,-3 -0.79561,-0.79561 -1.87484,-1.24264 -3,-1.24264 -1.12516,0 -2.20439,0.44703 -3,1.24264 -0.79561,0.79561 -1.24264,1.87484 -1.24264,3 0,1.12516 0.44703,2.20439 1.24264,3 0.79561,0.79561 1.87484,1.24264 3,1.24264 z"
     clip-path="none"
     style="fill:#377eb8;stroke:#377eb8;stroke-width:0.375;stroke-dasharray:none;stroke-opacity:1"
     id="path2297" /><path
     d="m 205.19625,107.58809 c 0.56258,0 1.10219,-0.22351 1.5,-0.62132 0.3978,-0.3978 0.62132,-0.93741 0.62132,-1.5 0,-0.56258 -0.22352,-1.10219 -0.62132,-1.5 -0.39781,-0.3978 -0.93742,-0.62132 -1.5,-0.62132 -0.56258,0 -1.1022,0.22352 -1.5,0.62132 -0.39781,0.39781 -0.62132,0.93742 -0.62132,1.5 0,0.56259 0.22351,1.1022 0.62132,1.5 0.3978,0.39781 0.93742,0.62132 1.5,0.62132 z"
     clip-path="none"
     style="fill:#377eb8;stroke:#377eb8;stroke-width:0.375;stroke-dasharray:none;stroke-opacity:1"
     id="path2299" /><path
     d="m 47.67375,215.11427 h 175.025"
     style="fill:none;stroke:#808080;stroke-width:1.125;stroke-linecap:round;stroke-linejoin:round;stroke-dasharray:none;stroke-opacity:1"
     id="path2305"
     clip-path="none" /><path
     d="M 228.59375,215.11428 V 35.364284"
     clip-path="none"
     style="fill:none;stroke:#808080;stroke-width:1.125;stroke-linecap:round;stroke-linejoin:round;stroke-dasharray:none;stroke-opacity:1"
     id="path2312" /><path
     d="M 272.35,215.11428 V 35.364284"
     clip-path="none"
     style="fill:none;stroke:#808080;stroke-width:1.125;stroke-linecap:round;stroke-linejoin:round;stroke-dasharray:none;stroke-opacity:1"
     id="path2316" /><path
     d="M 316.10625,215.11428 V 35.364284"
     clip-path="none"
     style="fill:none;stroke:#808080;stroke-width:1.125;stroke-linecap:round;stroke-linejoin:round;stroke-dasharray:none;stroke-opacity:1"
     id="path2320" /><path
     d="M 359.8625,215.11428 V 35.364284"
     clip-path="none"
     style="fill:none;stroke:#808080;stroke-width:1.125;stroke-linecap:round;stroke-linejoin:round;stroke-dasharray:none;stroke-opacity:1"
     id="path2324" /><path
     d="M 403.61875,215.11428 V 35.364284"
     clip-path="none"
     style="fill:none;stroke:#808080;stroke-width:1.125;stroke-linecap:round;stroke-linejoin:round;stroke-dasharray:none;stroke-opacity:1"
     id="path2328" /><path
     d="m 228.59375,215.11428 h 175.025"
     clip-path="none"
     style="fill:none;stroke:#808080;stroke-width:1.125;stroke-linecap:round;stroke-linejoin:round;stroke-dasharray:none;stroke-opacity:1"
     id="path2333" /><path
     d="m 228.59375,192.64553 h 175.025"
     clip-path="none"
     style="fill:none;stroke:#808080;stroke-width:1.125;stroke-linecap:round;stroke-linejoin:round;stroke-dasharray:none;stroke-opacity:1"
     id="path2337" /><path
     d="m 228.59375,170.17678 h 175.025"
     clip-path="none"
     style="fill:none;stroke:#808080;stroke-width:1.125;stroke-linecap:round;stroke-linejoin:round;stroke-dasharray:none;stroke-opacity:1"
     id="path2341" /><path
     d="m 228.59375,147.70803 h 175.025"
     clip-path="none"
     style="fill:none;stroke:#808080;stroke-width:1.125;stroke-linecap:round;stroke-linejoin:round;stroke-dasharray:none;stroke-opacity:1"
     id="path2345" /><path
     d="m 228.59375,125.23928 h 175.025"
     clip-path="none"
     style="fill:none;stroke:#808080;stroke-width:1.125;stroke-linecap:round;stroke-linejoin:round;stroke-dasharray:none;stroke-opacity:1"
     id="path2349" /><path
     d="m 228.59375,102.77053 h 175.025"
     clip-path="none"
     style="fill:none;stroke:#808080;stroke-width:1.125;stroke-linecap:round;stroke-linejoin:round;stroke-dasharray:none;stroke-opacity:1"
     id="path2353" /><path
     d="m 228.59375,80.301784 h 175.025"
     clip-path="none"
     style="fill:none;stroke:#808080;stroke-width:1.125;stroke-linecap:round;stroke-linejoin:round;stroke-dasharray:none;stroke-opacity:1"
     id="path2357" /><path
     d="m 228.59375,57.833034 h 175.025"
     clip-path="none"
     style="fill:none;stroke:#808080;stroke-width:1.125;stroke-linecap:round;stroke-linejoin:round;stroke-dasharray:none;stroke-opacity:1"
     id="path2361" /><path
     d="m 351.11125,152.84942 c 1.12516,0 2.20439,-0.44703 3,-1.24264 0.79561,-0.79561 1.24264,-1.87484 1.24264,-3 0,-1.12516 -0.44703,-2.20439 -1.24264,-3 -0.79561,-0.79561 -1.87484,-1.24264 -3,-1.24264 -1.12516,0 -2.20439,0.44703 -3,1.24264 -0.79561,0.79561 -1.24264,1.87484 -1.24264,3 0,1.12516 0.44703,2.20439 1.24264,3 0.79561,0.79561 1.87484,1.24264 3,1.24264 z"
     clip-path="none"
     style="fill:#e41a1c;stroke:#e41a1c;stroke-width:0.375;stroke-dasharray:none;stroke-opacity:1"
     id="path2370" /><path
     d="m 331.48743,155.54567 2.12132,-2.12132 2.12132,2.12132 2.12132,-2.12132 -2.12132,-2.12132 2.12132,-2.12132 -2.12132,-2.12132 -2.12132,2.12132 -2.12132,-2.12132 -2.12132,2.12132 2.12132,2.12132 -2.12132,2.12132 z"
     clip-path="none"
     style="fill:#e41a1c;stroke:#e41a1c;stroke-width:0.375;stroke-dasharray:none;stroke-opacity:1"
     id="path2372" /><path
     d="m 324.8575,133.65185 c 0.56258,0 1.10219,-0.22352 1.5,-0.62132 0.39781,-0.3978 0.62132,-0.93742 0.62132,-1.5 0,-0.56258 -0.22351,-1.1022 -0.62132,-1.5 -0.39781,-0.3978 -0.93742,-0.62132 -1.5,-0.62132 -0.56258,0 -1.10219,0.22352 -1.5,0.62132 -0.39781,0.3978 -0.62132,0.93742 -0.62132,1.5 0,0.56258 0.22351,1.1022 0.62132,1.5 0.39781,0.3978 0.93742,0.62132 1.5,0.62132 z"
     clip-path="none"
     style="fill:#e41a1c;stroke:#e41a1c;stroke-width:0.375;stroke-dasharray:none;stroke-opacity:1"
     id="path2374" /><path
     d="m 306.29434,134.5506 1.06066,-1.06066 1.06066,1.06066 1.06066,-1.06066 -1.06066,-1.06066 1.06066,-1.06066 -1.06066,-1.06066 -1.06066,1.06066 -1.06066,-1.06066 -1.06066,1.06066 1.06066,1.06066 -1.06066,1.06066 z"
     clip-path="none"
     style="fill:#e41a1c;stroke:#e41a1c;stroke-width:0.375;stroke-dasharray:none;stroke-opacity:1"
     id="path2376" /><path
     d="m 333.60875,124.08942 c 1.12516,0 2.20439,-0.44703 3,-1.24264 0.79561,-0.79561 1.24264,-1.87484 1.24264,-3 0,-1.12516 -0.44703,-2.20439 -1.24264,-3 -0.79561,-0.7956 -1.87484,-1.24264 -3,-1.24264 -1.12516,0 -2.20439,0.44703 -3,1.24264 -0.79561,0.79561 -1.24264,1.87484 -1.24264,3 0,1.12516 0.44703,2.20439 1.24264,3 0.79561,0.79561 1.87484,1.24264 3,1.24264 z"
     clip-path="none"
     style="fill:#377eb8;stroke:#377eb8;stroke-width:0.375;stroke-dasharray:none;stroke-opacity:1"
     id="path2378" /><path
     d="m 368.61375,107.5881 c 0.56258,0 1.10219,-0.22351 1.5,-0.62132 0.3978,-0.3978 0.62132,-0.93741 0.62132,-1.5 0,-0.56258 -0.22352,-1.10219 -0.62132,-1.5 -0.39781,-0.3978 -0.93742,-0.62132 -1.5,-0.62132 -0.56258,0 -1.1022,0.22352 -1.5,0.62132 -0.39781,0.39781 -0.62132,0.93742 -0.62132,1.5 0,0.56259 0.22351,1.1022 0.62132,1.5 0.3978,0.39781 0.93742,0.62132 1.5,0.62132 z"
     clip-path="none"
     style="fill:#377eb8;stroke:#377eb8;stroke-width:0.375;stroke-dasharray:none;stroke-opacity:1"
     id="path2380" /><path
     d="M 228.59375,215.11428 H 403.61878"
     style="fill:none;stroke:#808080;stroke-width:1.125;stroke-linecap:round;stroke-linejoin:round;stroke-dasharray:none;stroke-opacity:1"
     id="path2386"
     clip-path="none" /><path
     d="M 47.67375,215.11427 V 35.364274"
     clip-path="none"
     style="fill:none;stroke:#808080;stroke-width:1.125;stroke-linecap:round;stroke-linejoin:round;stroke-dasharray:none;stroke-opacity:1"
     id="path2204" /><path
     d="m 47.67375,403.86429 v -179.75"
     clip-path="none"
     style="fill:none;stroke:#808080;stroke-width:1.125;stroke-linecap:round;stroke-linejoin:round;stroke-dasharray:none;stroke-opacity:1"
     id="path2393" /><path
     d="m 91.43,403.86429 v -179.75"
     clip-path="none"
     style="fill:none;stroke:#808080;stroke-width:1.125;stroke-linecap:round;stroke-linejoin:round;stroke-dasharray:none;stroke-opacity:1"
     id="path2400" /><text
     style="font-style:normal;font-variant:normal;font-weight:normal;font-stretch:normal;font-size:11px;line-height:normal;font-family:Arial, sans-serif;text-anchor:middle;fill:#262626"
     x="91.430016"
     y="421.23788"
     id="text2403"
     clip-path="none">5</text><path
     d="m 135.18625,403.86429 v -179.75"
     clip-path="none"
     style="fill:none;stroke:#808080;stroke-width:1.125;stroke-linecap:round;stroke-linejoin:round;stroke-dasharray:none;stroke-opacity:1"
     id="path2407" /><text
     style="font-style:normal;font-variant:normal;font-weight:normal;font-stretch:normal;font-size:11px;line-height:normal;font-family:Arial, sans-serif;text-anchor:middle;fill:#262626"
     x="135.18623"
     y="421.23788"
     id="text2410"
     clip-path="none">10</text><path
     d="m 178.9425,403.86429 v -179.75"
     clip-path="none"
     style="fill:none;stroke:#808080;stroke-width:1.125;stroke-linecap:round;stroke-linejoin:round;stroke-dasharray:none;stroke-opacity:1"
     id="path2414" /><text
     style="font-style:normal;font-variant:normal;font-weight:normal;font-stretch:normal;font-size:11px;line-height:normal;font-family:Arial, sans-serif;text-anchor:middle;fill:#262626"
     x="178.94246"
     y="421.23788"
     id="text2417"
     clip-path="none">15</text><path
     d="m 222.69875,403.86429 v -179.75"
     clip-path="none"
     style="fill:none;stroke:#808080;stroke-width:1.125;stroke-linecap:round;stroke-linejoin:round;stroke-dasharray:none;stroke-opacity:1"
     id="path2421" /><text
     style="font-style:normal;font-variant:normal;font-weight:normal;font-stretch:normal;font-size:11px;line-height:normal;font-family:Arial, sans-serif;text-anchor:middle;fill:#262626"
     x="222.69875"
     y="421.23788"
     id="text2424"
     clip-path="none">20</text><path
     d="m 47.67375,403.86429 h 175.025"
     clip-path="none"
     style="fill:none;stroke:#808080;stroke-width:1.125;stroke-linecap:round;stroke-linejoin:round;stroke-dasharray:none;stroke-opacity:1"
     id="path2429" /><path
     d="m 47.67375,381.39554 h 175.025"
     clip-path="none"
     style="fill:none;stroke:#808080;stroke-width:1.125;stroke-linecap:round;stroke-linejoin:round;stroke-dasharray:none;stroke-opacity:1"
     id="path2436" /><path
     d="m 47.67375,358.92679 h 175.025"
     clip-path="none"
     style="fill:none;stroke:#808080;stroke-width:1.125;stroke-linecap:round;stroke-linejoin:round;stroke-dasharray:none;stroke-opacity:1"
     id="path2443" /><path
     d="m 47.67375,336.45804 h 175.025"
     clip-path="none"
     style="fill:none;stroke:#808080;stroke-width:1.125;stroke-linecap:round;stroke-linejoin:round;stroke-dasharray:none;stroke-opacity:1"
     id="path2450" /><path
     d="m 47.67375,313.98929 h 175.025"
     clip-path="none"
     style="fill:none;stroke:#808080;stroke-width:1.125;stroke-linecap:round;stroke-linejoin:round;stroke-dasharray:none;stroke-opacity:1"
     id="path2457" /><path
     d="m 47.67375,291.52054 h 175.025"
     clip-path="none"
     style="fill:none;stroke:#808080;stroke-width:1.125;stroke-linecap:round;stroke-linejoin:round;stroke-dasharray:none;stroke-opacity:1"
     id="path2464" /><path
     d="m 47.67375,269.05179 h 175.025"
     clip-path="none"
     style="fill:none;stroke:#808080;stroke-width:1.125;stroke-linecap:round;stroke-linejoin:round;stroke-dasharray:none;stroke-opacity:1"
     id="path2471" /><path
     d="m 47.67375,246.58304 h 175.025"
     clip-path="none"
     style="fill:none;stroke:#808080;stroke-width:1.125;stroke-linecap:round;stroke-linejoin:round;stroke-dasharray:none;stroke-opacity:1"
     id="path2478" /><path
     d="m 161.44,346.09318 c 1.12516,0 2.20439,-0.44703 3,-1.24264 0.79561,-0.79561 1.24264,-1.87484 1.24264,-3 0,-1.12516 -0.44703,-2.20439 -1.24264,-3 -0.79561,-0.79561 -1.87484,-1.24264 -3,-1.24264 -1.12516,0 -2.20439,0.44703 -3,1.24264 -0.79561,0.79561 -1.24264,1.87484 -1.24264,3 0,1.12516 0.44703,2.20439 1.24264,3 0.79561,0.79561 1.87484,1.24264 3,1.24264 z"
     clip-path="none"
     style="fill:#e41a1c;stroke:#e41a1c;stroke-width:0.375;stroke-dasharray:none;stroke-opacity:1"
     id="path2493" /><path
     d="m 133.06493,349.68818 2.12132,-2.12132 2.12132,2.12132 2.12132,-2.12132 -2.12132,-2.12132 2.12132,-2.12132 -2.12132,-2.12132 -2.12132,2.12132 -2.12132,-2.12132 -2.12132,2.12132 2.12132,2.12132 -2.12132,2.12132 z"
     clip-path="none"
     style="fill:#e41a1c;stroke:#e41a1c;stroke-width:0.375;stroke-dasharray:none;stroke-opacity:1"
     id="path2495" /><path
     d="m 178.9425,329.59186 c 0.56258,0 1.10219,-0.22352 1.5,-0.62132 0.3978,-0.3978 0.62132,-0.93742 0.62132,-1.5 0,-0.56258 -0.22352,-1.1022 -0.62132,-1.5 -0.39781,-0.3978 -0.93742,-0.62132 -1.5,-0.62132 -0.56258,0 -1.1022,0.22352 -1.5,0.62132 -0.39781,0.3978 -0.62132,0.93742 -0.62132,1.5 0,0.56258 0.22351,1.1022 0.62132,1.5 0.3978,0.3978 0.93742,0.62132 1.5,0.62132 z"
     clip-path="none"
     style="fill:#e41a1c;stroke:#e41a1c;stroke-width:0.375;stroke-dasharray:none;stroke-opacity:1"
     id="path2497" /><path
     d="m 151.62809,331.38936 1.06066,-1.06066 1.06066,1.06066 1.06066,-1.06066 -1.06066,-1.06066 1.06066,-1.06066 -1.06066,-1.06066 -1.06066,1.06066 -1.06066,-1.06066 -1.06066,1.06066 1.06066,1.06066 -1.06066,1.06066 z"
     clip-path="none"
     style="fill:#e41a1c;stroke:#e41a1c;stroke-width:0.375;stroke-dasharray:none;stroke-opacity:1"
     id="path2499" /><path
     d="m 178.9425,317.33318 c 1.12516,0 2.20439,-0.44703 3,-1.24264 0.79561,-0.79561 1.24264,-1.87484 1.24264,-3 0,-1.12516 -0.44703,-2.20439 -1.24264,-3 -0.79561,-0.79561 -1.87484,-1.24264 -3,-1.24264 -1.12516,0 -2.20439,0.44703 -3,1.24264 -0.79561,0.79561 -1.24264,1.87484 -1.24264,3 0,1.12516 0.44703,2.20439 1.24264,3 0.79561,0.79561 1.87484,1.24264 3,1.24264 z"
     clip-path="none"
     style="fill:#377eb8;stroke:#377eb8;stroke-width:0.375;stroke-dasharray:none;stroke-opacity:1"
     id="path2501" /><path
     d="m 196.445,302.62936 c 0.56258,0 1.10219,-0.22352 1.5,-0.62132 0.3978,-0.39781 0.62132,-0.93742 0.62132,-1.5 0,-0.56258 -0.22352,-1.1022 -0.62132,-1.5 -0.39781,-0.39781 -0.93742,-0.62132 -1.5,-0.62132 -0.56258,0 -1.1022,0.22351 -1.5,0.62132 -0.39781,0.3978 -0.62132,0.93742 -0.62132,1.5 0,0.56258 0.22351,1.10219 0.62132,1.5 0.3978,0.3978 0.93742,0.62132 1.5,0.62132 z"
     clip-path="none"
     style="fill:#377eb8;stroke:#377eb8;stroke-width:0.375;stroke-dasharray:none;stroke-opacity:1"
     id="path2503" /><path
     d="m 228.40625,403.86429 v -179.75"
     clip-path="none"
     style="fill:none;stroke:#808080;stroke-width:1.125;stroke-linecap:round;stroke-linejoin:round;stroke-dasharray:none;stroke-opacity:1"
     id="path2516" /><path
     d="m 272.1625,403.86429 v -179.75"
     clip-path="none"
     style="fill:none;stroke:#808080;stroke-width:1.125;stroke-linecap:round;stroke-linejoin:round;stroke-dasharray:none;stroke-opacity:1"
     id="path2523" /><text
     style="font-style:normal;font-variant:normal;font-weight:normal;font-stretch:normal;font-size:11px;line-height:normal;font-family:Arial, sans-serif;text-anchor:middle;fill:#262626"
     x="272.16251"
     y="421.23788"
     id="text2526"
     clip-path="none">5</text><path
     d="m 315.91875,403.86429 v -179.75"
     clip-path="none"
     style="fill:none;stroke:#808080;stroke-width:1.125;stroke-linecap:round;stroke-linejoin:round;stroke-dasharray:none;stroke-opacity:1"
     id="path2530" /><text
     style="font-style:normal;font-variant:normal;font-weight:normal;font-stretch:normal;font-size:11px;line-height:normal;font-family:Arial, sans-serif;text-anchor:middle;fill:#262626"
     x="315.91873"
     y="421.23788"
     id="text2533"
     clip-path="none">10</text><path
     d="m 359.675,403.86429 v -179.75"
     clip-path="none"
     style="fill:none;stroke:#808080;stroke-width:1.125;stroke-linecap:round;stroke-linejoin:round;stroke-dasharray:none;stroke-opacity:1"
     id="path2537" /><text
     style="font-style:normal;font-variant:normal;font-weight:normal;font-stretch:normal;font-size:11px;line-height:normal;font-family:Arial, sans-serif;text-anchor:middle;fill:#262626"
     x="359.67496"
     y="421.23788"
     id="text2540"
     clip-path="none">15</text><path
     d="m 403.43125,403.86429 v -179.75"
     clip-path="none"
     style="fill:none;stroke:#808080;stroke-width:1.125;stroke-linecap:round;stroke-linejoin:round;stroke-dasharray:none;stroke-opacity:1"
     id="path2544" /><text
     style="font-style:normal;font-variant:normal;font-weight:normal;font-stretch:normal;font-size:11px;line-height:normal;font-family:Arial, sans-serif;text-anchor:middle;fill:#262626"
     x="403.43118"
     y="421.23788"
     id="text2547"
     clip-path="none">20</text><path
     d="m 228.40625,403.86429 h 175.025"
     clip-path="none"
     style="fill:none;stroke:#808080;stroke-width:1.125;stroke-linecap:round;stroke-linejoin:round;stroke-dasharray:none;stroke-opacity:1"
     id="path2552" /><path
     d="m 228.40625,381.39554 h 175.025"
     clip-path="none"
     style="fill:none;stroke:#808080;stroke-width:1.125;stroke-linecap:round;stroke-linejoin:round;stroke-dasharray:none;stroke-opacity:1"
     id="path2556" /><path
     d="m 228.40625,358.92679 h 175.025"
     clip-path="none"
     style="fill:none;stroke:#808080;stroke-width:1.125;stroke-linecap:round;stroke-linejoin:round;stroke-dasharray:none;stroke-opacity:1"
     id="path2560" /><path
     d="m 228.40625,336.45804 h 175.025"
     clip-path="none"
     style="fill:none;stroke:#808080;stroke-width:1.125;stroke-linecap:round;stroke-linejoin:round;stroke-dasharray:none;stroke-opacity:1"
     id="path2564" /><path
     d="m 228.40625,313.98929 h 175.025"
     clip-path="none"
     style="fill:none;stroke:#808080;stroke-width:1.125;stroke-linecap:round;stroke-linejoin:round;stroke-dasharray:none;stroke-opacity:1"
     id="path2568" /><path
     d="m 228.40625,291.52054 h 175.025"
     clip-path="none"
     style="fill:none;stroke:#808080;stroke-width:1.125;stroke-linecap:round;stroke-linejoin:round;stroke-dasharray:none;stroke-opacity:1"
     id="path2572" /><path
     d="m 228.40625,269.05179 h 175.025"
     clip-path="none"
     style="fill:none;stroke:#808080;stroke-width:1.125;stroke-linecap:round;stroke-linejoin:round;stroke-dasharray:none;stroke-opacity:1"
     id="path2576" /><path
     d="m 228.40625,246.58304 h 175.025"
     clip-path="none"
     style="fill:none;stroke:#808080;stroke-width:1.125;stroke-linecap:round;stroke-linejoin:round;stroke-dasharray:none;stroke-opacity:1"
     id="path2580" /><path
     d="m 350.92375,346.09318 c 1.12516,0 2.20439,-0.44703 3,-1.24264 0.79561,-0.79561 1.24264,-1.87484 1.24264,-3 0,-1.12516 -0.44703,-2.20439 -1.24264,-3 -0.79561,-0.79561 -1.87484,-1.24264 -3,-1.24264 -1.12516,0 -2.20439,0.44703 -3,1.24264 -0.79561,0.79561 -1.24264,1.87484 -1.24264,3 0,1.12516 0.44703,2.20439 1.24264,3 0.79561,0.79561 1.87484,1.24264 3,1.24264 z"
     clip-path="none"
     style="fill:#e41a1c;stroke:#e41a1c;stroke-width:0.375;stroke-dasharray:none;stroke-opacity:1"
     id="path2589" /><path
     d="m 331.29993,348.78943 2.12132,-2.12132 2.12132,2.12132 2.12132,-2.12132 -2.12132,-2.12132 2.12132,-2.12132 -2.12132,-2.12132 -2.12132,2.12132 -2.12132,-2.12132 -2.12132,2.12132 2.12132,2.12132 -2.12132,2.12132 z"
     clip-path="none"
     style="fill:#e41a1c;stroke:#e41a1c;stroke-width:0.375;stroke-dasharray:none;stroke-opacity:1"
     id="path2591" /><path
     d="m 342.1725,329.59186 c 0.56258,0 1.10219,-0.22352 1.5,-0.62132 0.39781,-0.3978 0.62132,-0.93742 0.62132,-1.5 0,-0.56258 -0.22351,-1.1022 -0.62132,-1.5 -0.39781,-0.3978 -0.93742,-0.62132 -1.5,-0.62132 -0.56258,0 -1.10219,0.22352 -1.5,0.62132 -0.39781,0.3978 -0.62132,0.93742 -0.62132,1.5 0,0.56258 0.22351,1.1022 0.62132,1.5 0.39781,0.3978 0.93742,0.62132 1.5,0.62132 z"
     clip-path="none"
     style="fill:#e41a1c;stroke:#e41a1c;stroke-width:0.375;stroke-dasharray:none;stroke-opacity:1"
     id="path2593" /><path
     d="m 332.36059,331.38936 1.06066,-1.06066 1.06066,1.06066 1.06066,-1.06066 -1.06066,-1.06066 1.06066,-1.06066 -1.06066,-1.06066 -1.06066,1.06066 -1.06066,-1.06066 -1.06066,1.06066 1.06066,1.06066 -1.06066,1.06066 z"
     clip-path="none"
     style="fill:#e41a1c;stroke:#e41a1c;stroke-width:0.375;stroke-dasharray:none;stroke-opacity:1"
     id="path2595" /><path
     d="m 342.1725,317.33318 c 1.12516,0 2.20439,-0.44703 3,-1.24264 0.79561,-0.79561 1.24264,-1.87484 1.24264,-3 0,-1.12516 -0.44703,-2.20439 -1.24264,-3 -0.79561,-0.79561 -1.87484,-1.24264 -3,-1.24264 -1.12516,0 -2.20439,0.44703 -3,1.24264 -0.79561,0.79561 -1.24264,1.87484 -1.24264,3 0,1.12516 0.44703,2.20439 1.24264,3 0.79561,0.79561 1.87484,1.24264 3,1.24264 z"
     clip-path="none"
     style="fill:#377eb8;stroke:#377eb8;stroke-width:0.375;stroke-dasharray:none;stroke-opacity:1"
     id="path2597" /><path
     d="m 368.42625,302.62936 c 0.56258,0 1.10219,-0.22352 1.5,-0.62132 0.3978,-0.39781 0.62132,-0.93742 0.62132,-1.5 0,-0.56258 -0.22352,-1.1022 -0.62132,-1.5 -0.39781,-0.39781 -0.93742,-0.62132 -1.5,-0.62132 -0.56258,0 -1.1022,0.22351 -1.5,0.62132 -0.39781,0.3978 -0.62132,0.93742 -0.62132,1.5 0,0.56258 0.22351,1.10219 0.62132,1.5 0.3978,0.3978 0.93742,0.62132 1.5,0.62132 z"
     clip-path="none"
     style="fill:#377eb8;stroke:#377eb8;stroke-width:0.375;stroke-dasharray:none;stroke-opacity:1"
     id="path2599" /><path
     d="m 47.67375,403.86429 h 175.025"
     style="fill:none;stroke:#808080;stroke-width:1.125;stroke-linecap:round;stroke-linejoin:round;stroke-dasharray:none;stroke-opacity:1"
     id="path2509"
     clip-path="none" /><path
     d="M 228.40625,403.86429 H 403.43128"
     style="fill:none;stroke:#808080;stroke-width:1.125;stroke-linecap:round;stroke-linejoin:round;stroke-dasharray:none;stroke-opacity:1"
     id="path2605"
     clip-path="none" /><path
     d="m 47.67375,224.11429 h 175.025"
     clip-path="none"
     style="fill:none;stroke:#808080;stroke-width:1.125;stroke-linecap:round;stroke-linejoin:round;stroke-dasharray:none;stroke-opacity:1"
     id="path2485" /><text
     style="font-style:normal;font-variant:normal;font-weight:normal;font-stretch:normal;font-size:11px;line-height:normal;font-family:Arial, sans-serif;text-anchor:end;fill:#262626"
     x="38.087791"
     y="174.06276"
     id="text2228"
     clip-path="none">85</text><text
     style="font-style:normal;font-variant:normal;font-weight:normal;font-stretch:normal;font-size:11px;line-height:normal;font-family:Arial, sans-serif;text-anchor:end;fill:#262626"
     x="38.173729"
     y="129.12526"
     id="text2256"
     clip-path="none">90</text><text
     style="font-style:normal;font-variant:normal;font-weight:normal;font-stretch:normal;font-size:11px;line-height:normal;font-family:Arial, sans-serif;text-anchor:end;fill:#262626"
     x="38.087791"
     y="84.187759"
     id="text2284"
     clip-path="none">95</text><text
     style="font-style:normal;font-variant:normal;font-weight:normal;font-stretch:normal;font-size:11px;line-height:normal;font-family:Arial, sans-serif;text-anchor:end;fill:#262626"
     x="38.173729"
     y="39.250275"
     id="text6009"
     clip-path="none">100</text><text
     style="font-style:normal;font-variant:normal;font-weight:normal;font-stretch:normal;font-size:11px;line-height:normal;font-family:Arial, sans-serif;text-anchor:end;fill:#262626"
     x="38.087791"
     y="362.81274"
     id="text6017"
     clip-path="none">85</text><text
     style="font-style:normal;font-variant:normal;font-weight:normal;font-stretch:normal;font-size:11px;line-height:normal;font-family:Arial, sans-serif;text-anchor:end;fill:#262626"
     x="38.173729"
     y="317.87524"
     id="text6019"
     clip-path="none">90</text><text
     style="font-style:normal;font-variant:normal;font-weight:normal;font-stretch:normal;font-size:11px;line-height:normal;font-family:Arial, sans-serif;text-anchor:end;fill:#262626"
     x="38.087791"
     y="272.93774"
     id="text6021"
     clip-path="none">95</text><text
     style="font-style:normal;font-variant:normal;font-weight:normal;font-stretch:normal;font-size:11px;line-height:normal;font-family:Arial, sans-serif;text-anchor:end;fill:#262626"
     x="38.173729"
     y="228.00027"
     id="text6023"
     clip-path="none">100</text></svg>
