<?xml version="1.0" encoding="UTF-8" standalone="no"?>
<svg
   width="546"
   height="600"
   viewBox="0 0 409.5 450"
   version="1.1"
   id="svg1592"
   sodipodi:docname="Plasmodium_falciparum_og_size_distribution.svg"
   xml:space="preserve"
   inkscape:version="1.2.2 (b0a8486541, 2022-12-01)"
   inkscape:export-filename="Plasmodium_falciparum_og_size_distribution.png"
   inkscape:export-xdpi="300"
   inkscape:export-ydpi="300"
   xmlns:inkscape="http://www.inkscape.org/namespaces/inkscape"
   xmlns:sodipodi="http://sodipodi.sourceforge.net/DTD/sodipodi-0.dtd"
   xmlns="http://www.w3.org/2000/svg"
   xmlns:svg="http://www.w3.org/2000/svg"
   xmlns:rdf="http://www.w3.org/1999/02/22-rdf-syntax-ns#"
   xmlns:cc="http://creativecommons.org/ns#"
   xmlns:dc="http://purl.org/dc/elements/1.1/"><sodipodi:namedview
     id="namedview1594"
     pagecolor="#ffffff"
     bordercolor="#000000"
     borderopacity="0.25"
     inkscape:showpageshadow="2"
     inkscape:pageopacity="0.0"
     inkscape:pagecheckerboard="0"
     inkscape:deskcolor="#d1d1d1"
     inkscape:document-units="px"
     showgrid="false"
     inkscape:zoom="1.6388889"
     inkscape:cx="356.33898"
     inkscape:cy="294.40678"
     inkscape:window-width="1920"
     inkscape:window-height="1020"
     inkscape:window-x="0"
     inkscape:window-y="32"
     inkscape:window-maximized="1"
     inkscape:current-layer="svg1592" /><metadata
     id="metadata2"><rdf:RDF><cc:Work><dc:type
           rdf:resource="http://purl.org/dc/dcmitype/StillImage" /><dc:date>2024-07-31T10:29:29.931293</dc:date><dc:format>image/svg+xml</dc:format><dc:creator><cc:Agent><dc:title>Matplotlib v3.9.1, https://matplotlib.org/</dc:title></cc:Agent></dc:creator></cc:Work></rdf:RDF></metadata><defs
     id="defs6"><style
       type="text/css"
       id="style4">*{stroke-linejoin: round; stroke-linecap: butt}</style></defs><defs
     id="defs1590" /><text
     xml:space="preserve"
     style="font-size:9.99998px;line-height:1;font-family:Arial;-inkscape-font-specification:Arial;text-align:center;text-anchor:middle;fill:#000000;fill-opacity:1;stroke:none;stroke-width:0.75;stroke-linecap:round;stroke-linejoin:bevel;stroke-dasharray:none"
     x="129.98204"
     y="426.1799"
     id="text7577"><tspan
       sodipodi:role="line"
       id="tspan7575"
       style="fill:#000000;fill-opacity:1;stroke:none;stroke-width:0.75"
       x="129.98204"
       y="426.1799">Unfiltered, inflation: 1.1</tspan></text><text
     xml:space="preserve"
     style="font-size:9.99998px;line-height:1;font-family:Arial;-inkscape-font-specification:Arial;text-align:center;text-anchor:middle;fill:#000000;fill-opacity:1;stroke:none;stroke-width:0.75;stroke-linecap:round;stroke-linejoin:bevel;stroke-dasharray:none"
     x="129.98204"
     y="448.42722"
     id="text7577-6"><tspan
       sodipodi:role="line"
       id="tspan7575-7"
       style="fill:#000000;fill-opacity:1;stroke:none;stroke-width:0.75"
       x="129.98204"
       y="448.42722">Unfiltered, inflation: 1.5</tspan></text><text
     xml:space="preserve"
     style="font-size:9.99998px;line-height:1;font-family:Arial;-inkscape-font-specification:Arial;text-align:center;text-anchor:middle;fill:#000000;fill-opacity:1;stroke:none;stroke-width:0.75;stroke-linecap:round;stroke-linejoin:bevel;stroke-dasharray:none"
     x="340.75067"
     y="426.1799"
     id="text7577-6-5"><tspan
       sodipodi:role="line"
       id="tspan7575-7-3"
       style="fill:#000000;fill-opacity:1;stroke:none;stroke-width:0.75"
       x="340.75067"
       y="426.1799">Size filtered, inflation: 1.1</tspan></text><text
     xml:space="preserve"
     style="font-size:9.99998px;line-height:1;font-family:Arial;-inkscape-font-specification:Arial;text-align:center;text-anchor:middle;fill:#000000;fill-opacity:1;stroke:none;stroke-width:0.75;stroke-linecap:round;stroke-linejoin:bevel;stroke-dasharray:none"
     x="340.75067"
     y="448.42722"
     id="text7577-6-5-5"><tspan
       sodipodi:role="line"
       id="tspan7575-7-3-6"
       style="fill:#000000;fill-opacity:1;stroke:none;stroke-width:0.75"
       x="340.75067"
       y="448.42722">Size filtered, inflation: 1.5</tspan></text><path
     d="m 232.24399,35.716651 h 176.4735"
     style="fill:none;stroke:#808080;stroke-width:0.75;stroke-linecap:square;stroke-linejoin:miter;stroke-dasharray:1.5, 3;stroke-dashoffset:0;stroke-opacity:1"
     id="path9750"
     clip-path="none"
     sodipodi:nodetypes="cc" /><path
     d="m 232.24399,85.518344 h 176.4735"
     style="fill:none;stroke:#808080;stroke-width:0.75;stroke-linecap:square;stroke-linejoin:miter;stroke-dasharray:1.5, 3;stroke-dashoffset:0;stroke-opacity:1"
     id="path9752"
     clip-path="none"
     sodipodi:nodetypes="cc" /><path
     d="m 232.24399,135.32003 h 176.4735"
     style="fill:none;stroke:#808080;stroke-width:0.75;stroke-linecap:square;stroke-linejoin:miter;stroke-dasharray:1.5, 3;stroke-dashoffset:0;stroke-opacity:1"
     id="path9754"
     clip-path="none"
     sodipodi:nodetypes="cc" /><path
     d="m 232.24399,339.1117 h 176.4735"
     style="fill:none;stroke:#808080;stroke-width:0.75;stroke-linecap:square;stroke-linejoin:miter;stroke-dasharray:1.5, 3;stroke-dashoffset:0;stroke-opacity:1"
     id="path9756"
     clip-path="none"
     sodipodi:nodetypes="cc" /><path
     d="m 232.24399,289.31001 h 176.4735"
     style="fill:none;stroke:#808080;stroke-width:0.75;stroke-linecap:square;stroke-linejoin:miter;stroke-dasharray:1.5, 3;stroke-dashoffset:0;stroke-opacity:1"
     id="path9758"
     clip-path="none"
     sodipodi:nodetypes="cc" /><path
     d="m 232.24399,239.50831 h 176.4735"
     style="fill:none;stroke:#808080;stroke-width:0.75;stroke-linecap:square;stroke-linejoin:miter;stroke-dasharray:1.5, 3;stroke-dashoffset:0;stroke-opacity:1"
     id="path9760"
     clip-path="none"
     sodipodi:nodetypes="cc" /><path
     d="M 21.643645,35.716651 H 198.11749"
     style="fill:none;stroke:#808080;stroke-width:0.75;stroke-linecap:square;stroke-linejoin:miter;stroke-dasharray:1.5, 3;stroke-dashoffset:0;stroke-opacity:1"
     id="path10242"
     clip-path="none"
     sodipodi:nodetypes="cc" /><path
     d="M 21.643645,85.518344 H 198.11749"
     style="fill:none;stroke:#808080;stroke-width:0.75;stroke-linecap:square;stroke-linejoin:miter;stroke-dasharray:1.5, 3;stroke-dashoffset:0;stroke-opacity:1"
     id="path10244"
     clip-path="none"
     sodipodi:nodetypes="cc" /><path
     d="M 21.643645,135.32003 H 198.11749"
     style="fill:none;stroke:#808080;stroke-width:0.75;stroke-linecap:square;stroke-linejoin:miter;stroke-dasharray:1.5, 3;stroke-dashoffset:0;stroke-opacity:1"
     id="path10246"
     clip-path="none"
     sodipodi:nodetypes="cc" /><path
     d="M 21.643645,339.1117 H 198.11749"
     style="fill:none;stroke:#808080;stroke-width:0.75;stroke-linecap:square;stroke-linejoin:miter;stroke-dasharray:1.5, 3;stroke-dashoffset:0;stroke-opacity:1"
     id="path10248"
     clip-path="none"
     sodipodi:nodetypes="cc" /><path
     d="M 21.643645,289.31001 H 198.11749"
     style="fill:none;stroke:#808080;stroke-width:0.75;stroke-linecap:square;stroke-linejoin:miter;stroke-dasharray:1.5, 3;stroke-dashoffset:0;stroke-opacity:1"
     id="path10250"
     clip-path="none"
     sodipodi:nodetypes="cc" /><path
     d="M 21.643645,239.50831 H 198.11749"
     style="fill:none;stroke:#808080;stroke-width:0.75;stroke-linecap:square;stroke-linejoin:miter;stroke-dasharray:1.5, 3;stroke-dashoffset:0;stroke-opacity:1"
     id="path10252"
     clip-path="none"
     sodipodi:nodetypes="cc" /><text
     id="text162"
     x="-1.056355"
     y="140.4763"
     clip-path="none"><tspan
       style="font-style:normal;font-variant:normal;font-weight:normal;font-stretch:normal;font-size:10px;line-height:normal;font-family:Arial"
       x="-1.056355 4.5051675"
       y="139.47691"
       id="tspan158">10</tspan><tspan
       style="font-style:normal;font-variant:normal;font-weight:normal;font-stretch:normal;font-size:7px;line-height:normal;font-family:Arial"
       x="10.240927"
       y="132.50755"
       id="tspan160">1</tspan></text><text
     id="text177"
     x="-1.056355"
     y="90.674591"
     clip-path="none"><tspan
       style="font-style:normal;font-variant:normal;font-weight:normal;font-stretch:normal;font-size:10px;line-height:normal;font-family:Arial"
       x="-1.056355 4.5051675"
       y="89.675217"
       id="tspan173">10</tspan><tspan
       style="font-style:normal;font-variant:normal;font-weight:normal;font-stretch:normal;font-size:7px;line-height:normal;font-family:Arial"
       x="10.240927"
       y="82.705841"
       id="tspan175">2</tspan></text><text
     id="text192"
     x="-1.056355"
     y="40.872902"
     clip-path="none"><tspan
       style="font-style:normal;font-variant:normal;font-weight:normal;font-stretch:normal;font-size:10px;line-height:normal;font-family:Arial"
       x="-1.056355 4.5051675"
       y="39.873528"
       id="tspan188">10</tspan><tspan
       style="font-style:normal;font-variant:normal;font-weight:normal;font-stretch:normal;font-size:7px;line-height:normal;font-family:Arial"
       x="10.240927"
       y="32.904152"
       id="tspan190">3</tspan></text><text
     style="font-style:normal;font-variant:normal;font-weight:normal;font-stretch:normal;font-size:12px;line-height:normal;font-family:Arial;text-anchor:middle"
     x="109.88057"
     y="22.539005"
     id="text394"
     clip-path="none">A</text><text
     style="font-style:normal;font-variant:normal;font-weight:normal;font-stretch:normal;font-size:12px;line-height:normal;font-family:Arial;text-anchor:middle"
     x="320.48056"
     y="22.539005"
     id="text769"
     clip-path="none">B</text><text
     id="text800"
     x="93.859085"
     y="406.22586"
     clip-path="none"><tspan
       style="font-style:normal;font-variant:normal;font-weight:normal;font-stretch:normal;font-size:10px;line-height:normal;font-family:Arial"
       x="93.859085 99.420609"
       y="405.2265"
       id="tspan796">10</tspan><tspan
       style="font-style:normal;font-variant:normal;font-weight:normal;font-stretch:normal;font-size:7px;line-height:normal;font-family:Arial"
       x="105.15636"
       y="398.25711"
       id="tspan798">1</tspan></text><text
     id="text815"
     x="173.92453"
     y="406.22586"
     clip-path="none"><tspan
       style="font-style:normal;font-variant:normal;font-weight:normal;font-stretch:normal;font-size:10px;line-height:normal;font-family:Arial"
       x="173.92453 179.48605"
       y="405.2265"
       id="tspan811">10</tspan><tspan
       style="font-style:normal;font-variant:normal;font-weight:normal;font-stretch:normal;font-size:7px;line-height:normal;font-family:Arial"
       x="185.2218"
       y="398.25711"
       id="tspan813">2</tspan></text><text
     id="text942"
     x="-1.056355"
     y="344.26794"
     clip-path="none"><tspan
       style="font-style:normal;font-variant:normal;font-weight:normal;font-stretch:normal;font-size:10px;line-height:normal;font-family:Arial"
       x="-1.056355 4.5051675"
       y="343.26855"
       id="tspan938">10</tspan><tspan
       style="font-style:normal;font-variant:normal;font-weight:normal;font-stretch:normal;font-size:7px;line-height:normal;font-family:Arial"
       x="10.240927"
       y="336.29919"
       id="tspan940">1</tspan></text><text
     id="text957"
     x="-1.056355"
     y="294.46625"
     clip-path="none"><tspan
       style="font-style:normal;font-variant:normal;font-weight:normal;font-stretch:normal;font-size:10px;line-height:normal;font-family:Arial"
       x="-1.056355 4.5051675"
       y="293.46686"
       id="tspan953">10</tspan><tspan
       style="font-style:normal;font-variant:normal;font-weight:normal;font-stretch:normal;font-size:7px;line-height:normal;font-family:Arial"
       x="10.240927"
       y="286.4975"
       id="tspan955">2</tspan></text><text
     id="text972"
     x="-1.056355"
     y="244.66457"
     clip-path="none"><tspan
       style="font-style:normal;font-variant:normal;font-weight:normal;font-stretch:normal;font-size:10px;line-height:normal;font-family:Arial"
       x="-1.056355 4.5051675"
       y="243.66519"
       id="tspan968">10</tspan><tspan
       style="font-style:normal;font-variant:normal;font-weight:normal;font-stretch:normal;font-size:7px;line-height:normal;font-family:Arial"
       x="10.240927"
       y="236.69582"
       id="tspan970">3</tspan></text><text
     style="font-style:normal;font-variant:normal;font-weight:normal;font-stretch:normal;font-size:12px;line-height:normal;font-family:Arial;text-anchor:middle"
     x="109.88057"
     y="226.33067"
     id="text1171"
     clip-path="none">C</text><text
     id="text1202"
     x="304.45908"
     y="406.22586"
     clip-path="none"><tspan
       style="font-style:normal;font-variant:normal;font-weight:normal;font-stretch:normal;font-size:10px;line-height:normal;font-family:Arial"
       x="304.45908 310.0206"
       y="405.2265"
       id="tspan1198">10</tspan><tspan
       style="font-style:normal;font-variant:normal;font-weight:normal;font-stretch:normal;font-size:7px;line-height:normal;font-family:Arial"
       x="315.75638"
       y="398.25711"
       id="tspan1200">1</tspan></text><text
     id="text1217"
     x="384.52454"
     y="406.22586"
     clip-path="none"><tspan
       style="font-style:normal;font-variant:normal;font-weight:normal;font-stretch:normal;font-size:10px;line-height:normal;font-family:Arial"
       x="384.52454 390.08606"
       y="405.2265"
       id="tspan1213">10</tspan><tspan
       style="font-style:normal;font-variant:normal;font-weight:normal;font-stretch:normal;font-size:7px;line-height:normal;font-family:Arial"
       x="395.82181"
       y="398.25711"
       id="tspan1215">2</tspan></text><text
     id="text1344"
     x="209.54364"
     y="344.26794"
     clip-path="none"><tspan
       style="font-style:normal;font-variant:normal;font-weight:normal;font-stretch:normal;font-size:10px;line-height:normal;font-family:Arial"
       x="209.54364 215.10516"
       y="343.26855"
       id="tspan1340">10</tspan><tspan
       style="font-style:normal;font-variant:normal;font-weight:normal;font-stretch:normal;font-size:7px;line-height:normal;font-family:Arial"
       x="220.84093"
       y="336.29919"
       id="tspan1342">1</tspan></text><text
     id="text1359"
     x="209.54364"
     y="294.46625"
     clip-path="none"><tspan
       style="font-style:normal;font-variant:normal;font-weight:normal;font-stretch:normal;font-size:10px;line-height:normal;font-family:Arial"
       x="209.54364 215.10516"
       y="293.46686"
       id="tspan1355">10</tspan><tspan
       style="font-style:normal;font-variant:normal;font-weight:normal;font-stretch:normal;font-size:7px;line-height:normal;font-family:Arial"
       x="220.84093"
       y="286.4975"
       id="tspan1357">2</tspan></text><text
     id="text1374"
     x="209.54364"
     y="244.66457"
     clip-path="none"><tspan
       style="font-style:normal;font-variant:normal;font-weight:normal;font-stretch:normal;font-size:10px;line-height:normal;font-family:Arial"
       x="209.54364 215.10516"
       y="243.66519"
       id="tspan1370">10</tspan><tspan
       style="font-style:normal;font-variant:normal;font-weight:normal;font-stretch:normal;font-size:7px;line-height:normal;font-family:Arial"
       x="220.84093"
       y="236.69582"
       id="tspan1372">3</tspan></text><text
     style="font-style:normal;font-variant:normal;font-weight:normal;font-stretch:normal;font-size:12px;line-height:normal;font-family:Arial;text-anchor:middle"
     x="320.48056"
     y="226.33067"
     id="text1573"
     clip-path="none">D</text><text
     id="text10258"
     x="209.54364"
     y="140.4763"
     clip-path="none"><tspan
       style="font-style:normal;font-variant:normal;font-weight:normal;font-stretch:normal;font-size:10px;line-height:normal;font-family:Arial"
       x="209.54364 215.10516"
       y="139.47691"
       id="tspan10254">10</tspan><tspan
       style="font-style:normal;font-variant:normal;font-weight:normal;font-stretch:normal;font-size:7px;line-height:normal;font-family:Arial"
       x="220.84093"
       y="132.50755"
       id="tspan10256">1</tspan></text><text
     id="text10264"
     x="209.54364"
     y="90.674591"
     clip-path="none"><tspan
       style="font-style:normal;font-variant:normal;font-weight:normal;font-stretch:normal;font-size:10px;line-height:normal;font-family:Arial"
       x="209.54364 215.10516"
       y="89.675217"
       id="tspan10260">10</tspan><tspan
       style="font-style:normal;font-variant:normal;font-weight:normal;font-stretch:normal;font-size:7px;line-height:normal;font-family:Arial"
       x="220.84093"
       y="82.705841"
       id="tspan10262">2</tspan></text><text
     id="text10270"
     x="209.54364"
     y="40.872902"
     clip-path="none"><tspan
       style="font-style:normal;font-variant:normal;font-weight:normal;font-stretch:normal;font-size:10px;line-height:normal;font-family:Arial"
       x="209.54364 215.10516"
       y="39.873528"
       id="tspan10266">10</tspan><tspan
       style="font-style:normal;font-variant:normal;font-weight:normal;font-stretch:normal;font-size:7px;line-height:normal;font-family:Arial"
       x="220.84093"
       y="32.904152"
       id="tspan10268">3</tspan></text><path
     d="m 40.946668,423.24777 h 24.1021"
     clip-path="none"
     style="fill:none;stroke:#0080ff;stroke-width:1.5;stroke-linecap:square;stroke-linejoin:round;stroke-opacity:1"
     id="path1156-3"
     sodipodi:nodetypes="cc" /><path
     d="m 21.643645,9.2353821 h 24.1021 V 62.267546 H 59.84457 v 27.021817 h 10.003275 v 32.148267 h 14.098824 v 6.60498 h 5.360128 v 12.10371 h 4.64315 v 10.16552 h 4.09555 v -7.27742 h 3.663593 v 18.32586 h 3.31412 v 8.76964 h 3.02556 v -27.0955 h 2.78325 v 12.1037 h 2.57688 v 14.9918 h 4.64315 v 14.99184 m 5.97557,0 v -3e-5 h 1.78357 v 3e-5 m 1.69653,0 v -3e-5 h 4.64315 v 3e-5 m 1.41946,0 v -3e-5 h 1.36378 v 3e-5 m 6.11607,0 v -3e-5 h 1.10397 v 3e-5 m 5.04826,0 v -14.99184 h 0.92731 v 14.99184 m 6.64337,0 v -3e-5 h 0.74781 v 3e-5 m 14.8309,0 v -3e-5 h 0.47962 v 3e-5 m 26.1821,0 v -3e-5 h 0.22362 v 0"
     clip-path="none"
     style="fill:none;stroke:#0080ff;stroke-width:1.5;stroke-linecap:square;stroke-opacity:1"
     id="path379"
     sodipodi:nodetypes="ccccccccccccccccccccccccccccccccccccccccccccccccccccccccccc" /><path
     d="m 232.24365,8.1081861 h 24.1021 V 62.71505 h 14.09882 v 27.629581 h 10.00328 v 23.492759 h 7.75914 v 11.31712 h 6.33968 v 17.87991 h 5.36013 v 7.27742 h 4.64315 v -7.27742 h 7.75914 v 18.32586 h 3.31412 v 8.76964 h 3.02556 v -19.81808 h 2.78325 v 19.81808 h 4.97589 v -8.76964 h 2.24414 v 23.76148 m 2.10804,0 v -3e-5 h 1.98751 v 3e-5 m 1.88002,0 v -3e-5 h 1.78357 v 3e-5 m 3.31412,0 v -3e-5 h 1.54568 v 3e-5 m 10.37919,0 v -3e-5 h 1.10397 v 3e-5 m 2.10803,0 v -3e-5 h 1.00796 v 3e-5 m 8.7387,0 v -3e-5 h 0.76425 v 3e-5 m 15.57871,0 v -3e-5 h 0.47962 v 3e-5 m 26.1821,0 v -3e-5 h 0.22362 v 0"
     clip-path="none"
     style="fill:none;stroke:#0080ff;stroke-width:1.5;stroke-linecap:square;stroke-opacity:1"
     id="path754"
     sodipodi:nodetypes="ccccccccccccccccccccccccccccccccccccccccccccccccccccccccccc" /><path
     d="m 21.643645,216.27966 h 24.1021 V 264.3564 H 59.84457 v 24.10531 h 10.003275 v 25.49266 h 7.759143 v 6.22216 h 6.339681 v 14.9918 h 5.360128 v -7.53338 h 4.64315 v 11.47674 h 4.09555 v 4.82628 h 3.663593 v -2.54748 h 3.31412 v 23.76145 h 3.02556 v 8.76964 h 2.78325 v -23.76144 h 2.57688 v 23.76144 h 2.39901 v 14.9918 h 2.24414 v -14.9918 h 2.10804 v 14.99218 m 1.98751,0 v -14.99218 h 1.88002 v -8.76964 h 1.78357 v 23.76144 h 1.69653 v 3.8e-4 m 1.61759,0 v -3.8e-4 h 1.54568 v 3.8e-4 m 5.57543,0 v -3.8e-4 h 1.26458 v 3.8e-4 m 2.39901,0 v -3.8e-4 h 1.14017 v 3.8e-4 m 1.10397,0 v -3.8e-4 h 2.10803 v 3.8e-4 m 2.94023,0 v -3.8e-4 h 0.92731 v 3.8e-4 m 4.2983,0 v -3.8e-4 h 0.79939 v 3.8e-4 m 5.8088,0 v -3.8e-4 h 0.66235 v 3.8e-4 m 14.31683,0 v -3.8e-4 h 0.43196 v 3.8e-4 m 22.56617,0 v -3.8e-4 h 0.22362 v 0"
     clip-path="none"
     style="fill:none;stroke:#0080ff;stroke-width:1.5;stroke-linecap:square;stroke-opacity:1"
     id="path1156"
     sodipodi:nodetypes="ccccccccccccccccccccccccccccccccccccccccccccccccccccccccccccccccccccccccccccc" /><path
     d="m 232.24365,214.22966 h 24.1021 v 51.17518 h 14.09882 v 25.47476 h 10.00328 v 24.47065 h 7.75914 v 6.70821 h 6.33968 v 14.99181 h 5.36013 v -1.88194 h 4.64315 v 1.88194 h 4.09555 v 9.7758 h 3.66359 v 12.10371 h 6.33968 v -4.82629 h 2.78325 v -3.94335 h 2.57688 v 38.75362 m 2.39901,0 v -3.8e-4 h 2.24414 v 3.8e-4 m 2.10804,0 v -14.99218 h 1.98751 v 14.99218 m 1.88002,0 v -3.8e-4 h 1.78357 v 3.8e-4 m 6.33968,0 v -3.8e-4 h 1.41946 v 3.8e-4 m 5.16086,0 v -3.8e-4 h 1.17882 v 3.8e-4 m 1.14017,0 v -14.99218 h 1.10397 v 14.99218 m 1.06999,0 v -3.8e-4 h 1.03804 v 3.8e-4 m 4.77076,0 v -3.8e-4 h 0.88035 v 3.8e-4 m 7.05665,0 v -3.8e-4 h 0.70249 v 3.8e-4 m 14.09883,0 v -3.8e-4 h 0.46056 v 3.8e-4 m 24.7817,0 v -3.8e-4 h 0.22362 v 0"
     clip-path="none"
     style="fill:none;stroke:#0080ff;stroke-width:1.5;stroke-linecap:square;stroke-opacity:1"
     id="path1558"
     sodipodi:nodetypes="ccccccccccccccccccccccccccccccccccccccccccccccccccccccccccccccccccccc" /><path
     d="m 21.643645,206.75249 h 24.1021 V 276.597 H 59.84457 v 46.46763 h 10.003275 v 18.32586 h 7.759143 v 17.53929 h 6.339681 v 29.98398 l 5.360128,-3.8e-4 v -14.9918 h 8.7387 v -14.9918 h 3.663593 v 14.9918 h 3.31412 v 14.99218 m 3.02556,0 v -3.8e-4 h 2.78325 v 3.8e-4 m 13.1956,0 v -3.8e-4 h 1.78357 v 3.8e-4 m 14.09882,0 v -3.8e-4 h 1.14017 v 3.8e-4 m 12.95866,0 v -3.8e-4 h 0.76425 v 3.8e-4 m 6.84001,0 v -3.8e-4 h 0.61545 v 3.8e-4 m 22.54255,0 v -3.8e-4 h 0.31756 v 3.8e-4 0"
     clip-path="none"
     style="fill:none;stroke:#80ff00;stroke-width:1.5;stroke-linecap:square;stroke-opacity:1"
     id="path1150"
     sodipodi:nodetypes="cccccccccccccccccccccccccccccccccccccccccccc" /><path
     d="m 40.946668,445.4951 h 24.1021"
     clip-path="none"
     style="fill:none;stroke:#80ff00;stroke-width:1.5;stroke-linecap:square;stroke-linejoin:round;stroke-opacity:1"
     id="path7517"
     sodipodi:nodetypes="cc" /><path
     d="m 21.643645,2.4159811 h 24.1021 V 77.782346 H 59.84457 v 44.824684 h 10.003275 v 20.42739 h 7.759143 v 27.0955 h 11.699809 v 14.99181 h 4.64315 v -23.76145 h 4.09555 v 8.76964 h 3.663593 v 14.99181 h 3.31412 v 3e-5 m 3.02556,0 v -14.99184 h 2.78325 v 14.99184 m 13.1956,0 v -3e-5 h 1.78357 v 3e-5 m 14.09882,0 v -3e-5 h 1.14017 v 3e-5 m 10.55964,0 v -3e-5 h 0.8182 v 3e-5 m 7.27054,0 v -3e-5 h 0.64996 v 3e-5 m 24.42258,0 v -3e-5 h 0.31756 v 3e-5 0"
     clip-path="none"
     style="fill:none;stroke:#80ff00;stroke-width:1.5;stroke-linecap:square;stroke-opacity:1"
     id="path373"
     sodipodi:nodetypes="cccccccccccccccccccccccccccccccccccccccccccc" /><path
     d="m 232.24365,2.3928021 h 24.1021 V 78.086979 h 14.09882 v 45.756311 h 10.00328 v 16.30303 h 7.75914 v 29.9836 h 6.33968 v 14.99181 h 5.36013 v -14.99181 h 4.64315 v -8.76964 h 4.09555 v 8.76964 h 3.66359 v 14.99181 h 3.31412 v 3e-5 m 3.02556,0 v -14.99184 h 2.78325 v 14.99184 m 2.57688,0 v -3e-5 h 2.39901 v 3e-5 m 8.21971,0 v -3e-5 h 1.78357 v 3e-5 m 14.09882,0 v -3e-5 h 1.14017 v 3e-5 m 10.55964,0 v -3e-5 h 0.8182 v 3e-5 m 5.93299,0 v -3e-5 h 0.6752 v 3e-5 m 20.58679,0 v -3e-5 h 0.36796 v 3e-5 0"
     clip-path="none"
     style="fill:none;stroke:#80ff00;stroke-width:1.5;stroke-linecap:square;stroke-opacity:1"
     id="path748"
     sodipodi:nodetypes="cccccccccccccccccccccccccccccccccccccccccccccccccc" /><path
     d="m 232.24365,206.53478 h 24.1021 v 71.68356 h 14.09882 v 44.84629 h 10.00328 v 23.76144 h 7.75914 v 18.32587 h 6.33968 v 23.76182 m 5.36013,0 v -14.99218 h 4.64315 v -8.76964 h 7.75914 v 8.76964 h 3.31412 v 14.99218 m 3.02556,0 v -3.8e-4 h 2.78325 v 3.8e-4 m 13.1956,0 v -3.8e-4 h 1.78357 v 3.8e-4 m 14.09882,0 v -3.8e-4 h 1.14017 v 3.8e-4 m 12.95866,0 v -3.8e-4 h 0.76425 v 3.8e-4 m 6.84001,0 v -3.8e-4 h 0.61545 v 3.8e-4 m 22.54255,0 v -3.8e-4 h 0.31756 v 3.8e-4 0"
     clip-path="none"
     style="fill:none;stroke:#80ff00;stroke-width:1.5;stroke-linecap:square;stroke-opacity:1"
     id="path1552"
     sodipodi:nodetypes="cccccccccccccccccccccccccccccccccccccccccccc" /><path
     d="m 244.98924,423.24779 h 24.1021"
     clip-path="none"
     style="fill:none;stroke:#ff8000;stroke-width:1.5;stroke-linecap:square;stroke-linejoin:round;stroke-opacity:1"
     id="path7519"
     sodipodi:nodetypes="cc" /><path
     d="m 21.643645,6.9222771 h 24.1021 V 67.409851 H 59.84457 v 29.52045 h 10.003275 v 18.571649 h 7.759143 v 17.75666 h 6.339681 v -3.61315 h 5.360128 v 25.49266 h 4.64315 v -8.76964 h 4.09555 v -8.76964 h 3.663593 v 17.53928 h 6.33968 v 14.9918 h 2.78325 v 14.99184 m 4.97589,0 v -3e-5 h 2.24414 v 3e-5 m 5.97557,0 v -3e-5 h 1.78357 v 3e-5 m 4.8598,0 v -3e-5 h 1.47988 v 3e-5 m 7.75914,0 v -14.99184 h 1.14017 v 14.99184 m 2.17396,0 v -3e-5 h 1.03804 v 3e-5 m 3.86754,0 v -3e-5 h 0.90322 v 3e-5 m 15.55393,0 v -14.99184 h 0.56541 v 14.99184 m 31.86124,0 v -3e-5 h 0.22362 v 0"
     clip-path="none"
     style="fill:none;stroke:#ff8000;stroke-width:1.5;stroke-linecap:square;stroke-opacity:1"
     id="path376"
     sodipodi:nodetypes="ccccccccccccccccccccccccccccccccccccccccccccccccccccccc" /><path
     d="m 232.24365,6.3528481 h 24.1021 V 67.503685 h 14.09882 v 30.172506 h 10.00328 v 19.629189 h 7.75914 v 15.95323 h 6.33968 v -1.88193 h 5.36013 v 14.9918 h 8.7387 v -6.22216 h 3.66359 v 44.97541 h 3.31412 v -34.80989 h 3.02556 v 11.04844 h 2.78325 v 23.76148 m 4.97589,0 v -3e-5 h 4.35218 v 3e-5 m 3.86753,0 v -3e-5 h 1.78357 v 3e-5 m 12.92,0 v -14.99184 h 1.17882 v 14.99184 m 1.14017,0 v -3e-5 h 1.10397 v 3e-5 m 1.06999,0 v -3e-5 h 1.03804 v 3e-5 m 20.32469,0 v -3e-5 h 0.56541 v 3e-5 m 31.86124,0 v -3e-5 h 0.22362 v 0"
     clip-path="none"
     style="fill:none;stroke:#ff8000;stroke-width:1.5;stroke-linecap:square;stroke-opacity:1"
     id="path751"
     sodipodi:nodetypes="ccccccccccccccccccccccccccccccccccccccccccccccccccc" /><path
     d="m 21.643645,213.53521 h 24.1021 v 53.12274 H 59.84457 v 29.75713 h 10.003275 v 17.53929 h 7.759143 v 6.22216 h 6.339681 v 10.16552 h 5.360128 v 11.04844 h 4.64315 v 12.713 h 4.09555 v -10.16552 h 3.663593 v 29.98361 h 6.33968 v -19.81809 h 2.78325 v 11.04845 h 2.57688 v 23.76144 h 2.39901 v -14.9918 h 4.35218 v 14.9918 h 1.98751 v 3.8e-4 m 1.88002,0 v -14.99218 h 1.78357 v 14.99218 m 4.8598,0 v -3.8e-4 h 2.89934 v 3.8e-4 m 9.65381,0 v -3.8e-4 h 1.03804 v 3.8e-4 m 1.00796,0 v -3.8e-4 h 1.93227 v 3.8e-4 m 3.56949,0 v -3.8e-4 h 0.83792 v 3.8e-4 m 0.8182,0 v -3.8e-4 h 0.79939 v 3.8e-4 m 1.54568,0 v -3.8e-4 h 0.74781 v 3.8e-4 m 7.31239,0 v -3.8e-4 h 0.59441 v 3.8e-4 m 33.58582,0 v -3.8e-4 h 0.22362 v 0"
     clip-path="none"
     style="fill:none;stroke:#ff8000;stroke-width:1.5;stroke-linecap:square;stroke-opacity:1"
     id="path1153"
     sodipodi:nodetypes="ccccccccccccccccccccccccccccccccccccccccccccccccccccccccccccccccccc" /><path
     d="m 232.24365,212.20982 h 24.1021 v 54.986 h 14.09882 v 29.21926 h 10.00328 v 16.87374 h 7.75914 v 20.1483 h 6.33968 v 3.61315 h 5.36013 v 6.8877 h 4.64315 v 6.22217 h 4.09555 v -8.76965 h 3.66359 v 17.53929 h 3.31412 v 6.22216 h 5.80881 v 8.76964 h 2.57688 v 14.99218 m 4.64315,0 v -14.99218 h 2.10804 v 14.99218 m 3.86753,0 v -3.8e-4 h 1.78357 v 3.8e-4 m 4.8598,0 v -3.8e-4 h 1.47988 v 3.8e-4 m 7.75914,0 v -3.8e-4 h 1.14017 v 3.8e-4 m 2.17396,0 v -23.76182 h 1.03804 v 23.76182 m 4.77076,0 v -14.99218 h 0.88035 v 14.99218 m 16.34296,0 v -3.8e-4 h 0.53911 v 3.8e-4 m 30.21816,0 v -3.8e-4 h 0.22362 v 0"
     clip-path="none"
     style="fill:none;stroke:#ff8000;stroke-width:1.5;stroke-linecap:square;stroke-opacity:1"
     id="path1555"
     sodipodi:nodetypes="ccccccccccccccccccccccccccccccccccccccccccccccccccccccccc" /><path
     d="m 244.98924,445.49511 h 24.1021"
     clip-path="none"
     style="fill:none;stroke:#ff0080;stroke-width:1.5;stroke-linecap:square;stroke-linejoin:round;stroke-opacity:1"
     id="path7521"
     sodipodi:nodetypes="cc" /><path
     d="m 21.643645,2.2404381 h 24.1021 V 78.86788 H 59.84457 v 44.97541 h 10.003275 v 37.51699 h 7.759143 v -6.22216 h 6.339681 v 14.9918 h 5.360128 v -8.76964 h 4.64315 v 23.76145 h 4.09555 v -23.76145 h 3.663593 v 8.76964 h 3.31412 v 14.99184 m 3.02556,0 v -3e-5 h 2.78325 v 3e-5 m 9.32807,0 v -3e-5 h 1.98751 v 3e-5 m 15.3634,0 v -3e-5 h 1.22019 v 3e-5 m 3.42296,0 v -3e-5 h 1.06999 v 3e-5 m 12.29676,0 v -3e-5 h 0.73207 v 3e-5 m 28.51813,0 v -3e-5 h 0.31756 v 3e-5 0"
     clip-path="none"
     style="fill:none;stroke:#ff0080;stroke-width:1.5;stroke-linecap:square;stroke-opacity:1"
     id="path370"
     sodipodi:nodetypes="cccccccccccccccccccccccccccccccccccccccccccccc" /><path
     d="m 232.24365,2.1394551 h 24.1021 V 79.513558 h 14.09882 v 47.036832 h 10.00328 v 34.80989 h 7.75914 v -11.04844 h 6.33968 v 19.81808 h 5.36013 v 14.99181 h 4.64315 v -14.99181 h 4.09555 v -8.76964 h 3.66359 v 8.76964 h 3.31412 v 14.99184 m 3.02556,0 v -14.99184 h 2.78325 v 14.99184 m 26.67898,0 v -3e-5 h 1.22019 v 3e-5 m 2.31899,0 v -3e-5 h 1.10397 v 3e-5 m 12.61894,0 v -3e-5 h 0.74781 v 3e-5 m 29.2502,0 v -3e-5 h 0.31756 v 3e-5 0"
     clip-path="none"
     style="fill:none;stroke:#ff0080;stroke-width:1.5;stroke-linecap:square;stroke-opacity:1"
     id="path745"
     sodipodi:nodetypes="cccccccccccccccccccccccccccccccccccccccccc" /><path
     d="m 21.643645,206.37994 h 24.1021 v 71.9683 H 59.84457 v 48.05045 h 10.003275 v 20.42738 h 7.759143 v 18.32587 h 6.339681 v 8.76964 h 5.360128 v 14.9918 h 8.7387 v -23.76144 h 6.977713 v 23.76144 h 3.02556 v -14.9918 h 2.78325 v 14.99218 m 26.67898,0 v -3.8e-4 h 1.22019 v 3.8e-4 m 3.42296,0 v -3.8e-4 h 1.06999 v 3.8e-4 m 12.29676,0 v -3.8e-4 h 0.73207 v 3.8e-4 m 28.19765,0 v -3.8e-4 h 0.32048 v 3.8e-4 0"
     clip-path="none"
     style="fill:none;stroke:#ff0080;stroke-width:1.5;stroke-linecap:square;stroke-opacity:1"
     id="path1147"
     sodipodi:nodetypes="cccccccccccccccccccccccccccccccccccccc" /><path
     d="m 232.24365,206.29129 h 24.1021 v 72.45141 h 14.09882 v 47.65599 h 10.00328 v 20.42738 h 7.75914 v 18.32587 h 6.33968 v 8.76964 h 5.36013 v 14.99218 m 4.64315,0 v -3.8e-4 h 4.09555 v -29.9836 h 3.66359 v 14.9918 h 3.31412 v 14.9918 h 3.02556 v -14.9918 h 2.78325 v 14.99218 m 18.29329,0 v -3.8e-4 h 1.54568 v 3.8e-4 m 11.48316,0 v -3.8e-4 h 1.06999 v 3.8e-4 m 12.29676,0 v -3.8e-4 h 0.73207 v 3.8e-4 m 28.51813,0 v -3.8e-4 h 0.31756 v 3.8e-4 0"
     clip-path="none"
     style="fill:none;stroke:#ff0080;stroke-width:1.5;stroke-linecap:square;stroke-opacity:1"
     id="path1549"
     sodipodi:nodetypes="cccccccccccccccccccccccccccccccccccccccccc" /><path
     d="M 21.643645,185.12173 V 0.9067611"
     style="fill:none;stroke:#000000;stroke-width:1.5;stroke-linecap:square;stroke-linejoin:miter;stroke-dasharray:none"
     id="path382"
     clip-path="none" /><path
     d="M 21.643645,185.12173 H 198.11749"
     style="fill:none;stroke:#000000;stroke-width:1.5;stroke-linecap:square;stroke-linejoin:miter;stroke-dasharray:none"
     id="path388"
     clip-path="none"
     sodipodi:nodetypes="cc" /><path
     d="M 232.24365,185.12173 V 0.9067611"
     style="fill:none;stroke:#000000;stroke-width:1.5;stroke-linecap:square;stroke-linejoin:miter;stroke-dasharray:none"
     id="path757"
     clip-path="none" /><path
     d="m 232.24365,185.12173 176.47384,3e-5"
     style="fill:none;stroke:#000000;stroke-width:1.5;stroke-linecap:square;stroke-linejoin:miter;stroke-dasharray:none"
     id="path763"
     clip-path="none"
     sodipodi:nodetypes="cc" /><path
     id="use791"
     d="m 101.70909,388.91337 v 3.5"
     style="stroke:#000000;stroke-width:0.75;stroke-linecap:round;stroke-linejoin:bevel;stroke-dasharray:none" /><path
     id="use806"
     d="m 181.77454,388.91337 v 3.5"
     style="stroke:#000000;stroke-width:0.75;stroke-linecap:round;stroke-linejoin:bevel;stroke-dasharray:none" /><path
     d="M 21.643645,388.91338 V 204.69842"
     style="fill:none;stroke:#000000;stroke-width:1.5;stroke-linecap:square;stroke-linejoin:miter;stroke-dasharray:none"
     id="path1159"
     clip-path="none"
     sodipodi:nodetypes="cc" /><path
     d="M 21.643645,388.91338 H 198.11749"
     style="fill:none;stroke:#000000;stroke-width:1.5;stroke-linecap:square;stroke-linejoin:miter;stroke-dasharray:none"
     id="path1165"
     clip-path="none"
     sodipodi:nodetypes="cc" /><path
     id="use1193"
     d="m 312.30909,388.91337 v 3.5"
     style="stroke:#000000;stroke-width:0.75;stroke-linecap:round;stroke-linejoin:bevel;stroke-dasharray:none" /><path
     id="use1208"
     d="m 392.37455,388.91337 v 3.5"
     style="stroke:#000000;stroke-width:0.75;stroke-linecap:round;stroke-linejoin:bevel;stroke-dasharray:none" /><path
     d="M 232.24365,388.91338 V 204.69842"
     style="fill:none;stroke:#000000;stroke-width:1.5;stroke-linecap:square;stroke-linejoin:miter;stroke-dasharray:none"
     id="path1561"
     clip-path="none"
     sodipodi:nodetypes="cc" /><path
     d="m 232.24399,388.91338 h 176.4735"
     style="fill:none;stroke:#000000;stroke-width:1.5;stroke-linecap:square;stroke-linejoin:miter;stroke-dasharray:none"
     id="path1567"
     clip-path="none"
     sodipodi:nodetypes="cc" /></svg>
